<?xml version="1.0" standalone="no"?>
<!DOCTYPE svg PUBLIC "-//W3C//DTD SVG 20010904//EN"
 "http://www.w3.org/TR/2001/REC-SVG-20010904/DTD/svg10.dtd">
<svg version="1.0" xmlns="http://www.w3.org/2000/svg"
 width="1000.000000pt" height="1000.000000pt" viewBox="0 0 1000.000000 1000.000000"
 preserveAspectRatio="xMidYMid meet">
<metadata>
Created by potrace 1.14, written by Peter Selinger 2001-2017
</metadata>
<g transform="translate(0.000000,1000.000000) scale(0.100000,-0.100000)"
fill="#000000" stroke="none">
<path d="M1210 4976 l0 -2786 550 0 550 0 0 1105 0 1105 178 0 c235 0 296 -10
402 -62 110 -54 217 -159 319 -313 80 -122 123 -208 579 -1165 l318 -665 602
-3 c331 -1 602 -1 602 1 0 17 -1113 2210 -1160 2286 -113 181 -217 275 -358
322 l-67 22 111 22 c268 53 460 150 625 314 175 175 278 389 325 676 25 151
25 502 1 665 -117 768 -518 1113 -1437 1236 -108 15 -262 18 -1132 21 l-1008
4 0 -2785z m1870 1850 c325 -49 494 -187 566 -461 27 -101 27 -469 1 -565 -53
-194 -144 -310 -303 -389 -151 -74 -281 -91 -701 -91 l-333 0 0 760 0 760 338
0 c241 0 364 -4 432 -14z"/>
<path d="M7535 3399 c-91 -9 -145 -24 -220 -61 -170 -86 -291 -237 -342 -428
-24 -89 -24 -290 0 -380 31 -118 83 -206 177 -300 147 -148 271 -196 485 -187
191 7 310 57 438 184 140 140 210 336 193 547 -31 406 -331 662 -731 625z"/>
</g>
</svg>
